<svg xmlns="http://www.w3.org/2000/svg" viewBox="0 0 200 200" width="200" height="200">
  <circle cx="100" cy="100" r="95" fill="#154988"/>
  <circle cx="100" cy="100" r="85" fill="#2580c3"/>
  <path d="M60 70 h80 v20 h-80 z" fill="#f0f0f0"/>
  <path d="M50 90 h100 v40 h-100 z" fill="#ffffff" rx="8" ry="8"/>
  <path d="M65 120 h70 v30 h-70 z" fill="#e0e0e0"/>
  <text x="100" y="117" font-family="sans-serif" font-weight="bold" font-size="28" fill="#154988" text-anchor="middle">SP</text>
  <line x1="75" y1="130" x2="125" y2="130" stroke="#154988" stroke-width="4"/>
  <line x1="75" y1="140" x2="115" y2="140" stroke="#154988" stroke-width="4"/>
  <path d="M140 70 Q140 80 150 80 Q160 80 160 70 Q160 60 150 50 Q140 60 140 70" fill="#00a3e0"/>
  <path d="M40 85 Q40 95 50 95 Q60 95 60 85 Q60 75 50 65 Q40 75 40 85" fill="#e2007a"/>
  <circle cx="150" cy="100" r="8" fill="#ffd100"/>
</svg>
